<svg xmlns="http://www.w3.org/2000/svg" width="1100" height="120" viewBox="0 0 1100 120">
  <defs>
    <linearGradient id="sky" x1="0" y1="0" x2="1" y2="1">
      <stop offset="0%" stop-color="#ffe8f3"/>
      <stop offset="55%" stop-color="#fff5f8"/>
      <stop offset="100%" stop-color="#e8f7ff"/>
    </linearGradient>
    <linearGradient id="ear" x1="0" y1="0" x2="0" y2="1">
      <stop offset="0%" stop-color="#ffb3c9"/>
      <stop offset="100%" stop-color="#ff8fab"/>
    </linearGradient>
    <linearGradient id="earIn" x1="0" y1="0" x2="0" y2="1">
      <stop offset="0%" stop-color="#ffd6e3"/>
      <stop offset="100%" stop-color="#ffc2d6"/>
    </linearGradient>
    <filter id="soft" x="-20%" y="-20%" width="140%" height="140%">
      <feDropShadow dx="0" dy="8" stdDeviation="10" flood-color="#ff9eb8" flood-opacity="0.35"/>
    </filter>
    <filter id="pill" x="-10%" y="-10%" width="120%" height="120%">
      <feDropShadow dx="0" dy="4" stdDeviation="6" flood-color="#ffb3c6" flood-opacity="0.4"/>
    </filter>
  </defs>
  <rect width="1100" height="120" rx="0" fill="url(#sky)"/>
  <ellipse cx="130" cy="18" rx="52" ry="68" fill="url(#ear)" filter="url(#soft)" transform="rotate(-12 130 18)"/>
  <ellipse cx="130" cy="22" rx="28" ry="42" fill="url(#earIn)" transform="rotate(-12 130 22)"/>
  <ellipse cx="970" cy="18" rx="52" ry="68" fill="url(#ear)" filter="url(#soft)" transform="rotate(12 970 18)"/>
  <ellipse cx="970" cy="22" rx="28" ry="42" fill="url(#earIn)" transform="rotate(12 970 22)"/>
  <rect x="24" y="52" width="1052" height="56" rx="28" fill="#ffffff" filter="url(#pill)"/>
  <rect x="30" y="58" width="1040" height="44" rx="22" fill="#fffafc" stroke="#ffd6e3" stroke-width="2"/>
  <circle cx="550" cy="38" r="30" fill="#fff" stroke="#ffc2d6" stroke-width="3" filter="url(#pill)"/>
  <ellipse cx="538" cy="36" rx="5" ry="7" fill="#4a3b47"/>
  <ellipse cx="562" cy="36" rx="5" ry="7" fill="#4a3b47"/>
  <circle cx="540" cy="34" r="2" fill="#fff"/>
  <circle cx="564" cy="34" r="2" fill="#fff"/>
  <ellipse cx="550" cy="44" rx="4" ry="3" fill="#ff8fab"/>
  <path d="M 542 48 Q 550 52 558 48" stroke="#ff8fab" stroke-width="2" fill="none" stroke-linecap="round"/>
  <text x="550" y="88" text-anchor="middle" font-family="ui-sans-serif, system-ui, sans-serif" font-size="22" font-weight="700" fill="#5c3d4e">nicole li</text>
  <text x="550" y="108" text-anchor="middle" font-family="ui-sans-serif, system-ui, sans-serif" font-size="13" fill="#9d6b7d">data × product · chicago · northwestern</text>
</svg>