<svg xmlns="http://www.w3.org/2000/svg" viewBox="0 0 820 140" fill="none">
  <rect width="820" height="140" rx="12" fill="#0d1117"/>
  <text x="24" y="28" fill="#8b949e" font-family="ui-monospace, SFMono-Regular, Menlo, monospace" font-size="12">// data ’ product pipeline</text>

  <rect x="24" y="48" width="150" height="64" rx="8" stroke="#30363d" stroke-width="1.5" fill="#161b22"/>
  <text x="44" y="74" fill="#58a6ff" font-family="ui-monospace, monospace" font-size="11">source</text>
  <text x="44" y="94" fill="#e6edf3" font-family="ui-monospace, monospace" font-size="13">raw data</text>

  <path d="M174 80 H214" stroke="#484f58" stroke-width="2" stroke-dasharray="4 4"/>
  <polygon points="214,80 206,76 206,84" fill="#484f58"/>

  <rect x="218" y="48" width="150" height="64" rx="8" stroke="#30363d" stroke-width="1.5" fill="#161b22"/>
  <text x="238" y="74" fill="#3fb950" font-family="ui-monospace, monospace" font-size="11">transform</text>
  <text x="238" y="94" fill="#e6edf3" font-family="ui-monospace, monospace" font-size="13">SQL / ETL</text>

  <path d="M368 80 H408" stroke="#484f58" stroke-width="2" stroke-dasharray="4 4"/>
  <polygon points="408,80 400,76 400,84" fill="#484f58"/>

  <rect x="412" y="48" width="150" height="64" rx="8" stroke="#30363d" stroke-width="1.5" fill="#161b22"/>
  <text x="432" y="74" fill="#d2a8ff" font-family="ui-monospace, monospace" font-size="11">index</text>
  <text x="432" y="94" fill="#e6edf3" font-family="ui-monospace, monospace" font-size="13">lookup</text>

  <path d="M562 80 H602" stroke="#484f58" stroke-width="2" stroke-dasharray="4 4"/>
  <polygon points="602,80 594,76 594,84" fill="#484f58"/>

  <rect x="606" y="48" width="190" height="64" rx="8" stroke="#f78166" stroke-width="1.5" fill="#161b22"/>
  <text x="626" y="74" fill="#f78166" font-family="ui-monospace, monospace" font-size="11">surface</text>
  <text x="626" y="94" fill="#e6edf3" font-family="ui-monospace, monospace" font-size="13">extension / app</text>

  <circle cx="99" cy="80" r="4" fill="#58a6ff"/>
  <circle cx="293" cy="80" r="4" fill="#3fb950"/>
  <circle cx="487" cy="80" r="4" fill="#d2a8ff"/>
  <circle cx="701" cy="80" r="4" fill="#f78166"/>
</svg>
